<svg width="38" height="39" viewBox="0 0 38 39" fill="none" xmlns="http://www.w3.org/2000/svg">
<circle cx="19" cy="19.9199" r="18" stroke="#858585" stroke-width="2"/>
<path d="M22.5355 14.2636C23.1213 13.6778 24.0711 13.6778 24.6569 14.2636C25.2426 14.8493 25.2426 15.7991 24.6569 16.3849L15.4645 25.5773C14.8787 26.1631 13.9289 26.1631 13.3431 25.5773C12.7574 24.9915 12.7574 24.0417 13.3431 23.4559L22.5355 14.2636Z" fill="#858585"/>
<path d="M24.6569 23.455C25.2426 24.0408 25.2426 24.9905 24.6569 25.5763C24.0711 26.1621 23.1213 26.1621 22.5355 25.5763L13.3431 16.3839C12.7574 15.7981 12.7574 14.8484 13.3431 14.2626C13.9289 13.6768 14.8787 13.6768 15.4645 14.2626L24.6569 23.455Z" fill="#858585"/>
</svg>
