<svg width="38" height="39" viewBox="0 0 38 39" fill="none" xmlns="http://www.w3.org/2000/svg">
<circle cx="19" cy="19.9199" r="18" stroke="#3183FF" stroke-width="2"/>
<path d="M25.4997 18.4204C26.3281 18.4204 26.9997 19.0919 26.9997 19.9204C26.9997 20.7488 26.3281 21.4204 25.4997 21.4204H12.4997C11.6712 21.4204 10.9997 20.7488 10.9997 19.9204C10.9997 19.0919 11.6712 18.4204 12.4997 18.4204H25.4997Z" fill="#3183FF"/>
<path d="M20.5004 26.4197C20.5004 27.2481 19.8288 27.9197 19.0004 27.9197C18.1719 27.9197 17.5004 27.2481 17.5004 26.4197L17.5004 13.4197C17.5004 12.5912 18.1719 11.9197 19.0004 11.9197C19.8288 11.9197 20.5004 12.5912 20.5004 13.4197L20.5004 26.4197Z" fill="#3183FF"/>
</svg>
