<svg width="22" height="10" viewBox="0 0 22 10" fill="none" xmlns="http://www.w3.org/2000/svg">
<path fill-rule="evenodd" clip-rule="evenodd" d="M21.396 4.40554C21.6126 4.61548 21.6907 4.90884 21.6302 5.1789L21.6252 5.19988C21.5888 5.34441 21.5124 5.48141 21.3959 5.59428L21.3852 5.60451L17.1035 9.75385C16.7648 10.082 16.2157 10.082 15.877 9.75385C15.5384 9.42565 15.5384 8.89354 15.877 8.56534L18.7761 5.75587L0.840384 5.75587C0.376242 5.75587 -2.05769e-05 5.37961 -2.05363e-05 4.91547C-2.04958e-05 4.45132 0.376242 4.07506 0.840386 4.07506L18.6018 4.07506L15.877 1.43449C15.5383 1.10629 15.5383 0.574177 15.877 0.245978C16.2157 -0.0822206 16.7648 -0.0822205 17.1034 0.245979L21.3823 4.39261L21.396 4.40554Z" fill="#3183FF"/>
</svg>
