<svg width="31" height="31" viewBox="0 0 31 31" fill="none" xmlns="http://www.w3.org/2000/svg">
<path d="M6.30917 13.4329C8.76917 18.2675 12.7325 22.2137 17.5671 24.6908L21.3254 20.9325C21.7867 20.4713 22.47 20.3175 23.0679 20.5225C24.9813 21.1546 27.0483 21.4963 29.1667 21.4963C30.1063 21.4963 30.875 22.265 30.875 23.2046V29.1667C30.875 30.1063 30.1063 30.875 29.1667 30.875C13.1254 30.875 0.125 17.8746 0.125 1.83333C0.125 0.89375 0.89375 0.125 1.83333 0.125H7.8125C8.75208 0.125 9.52083 0.89375 9.52083 1.83333C9.52083 3.96875 9.8625 6.01875 10.4946 7.93208C10.6825 8.53 10.5458 9.19625 10.0675 9.67458L6.30917 13.4329Z" fill="#9D7AFF"/>
</svg>
