<svg width="10" height="10" viewBox="0 0 10 10" fill="none" xmlns="http://www.w3.org/2000/svg">
<path fill-rule="evenodd" clip-rule="evenodd" d="M5.00002 0C4.44774 0 4.00002 0.447715 4.00002 1V3.99999L1 3.99999C0.447715 3.99999 0 4.4477 0 4.99999C0 5.55227 0.447715 5.99999 1 5.99999H4.00002V9C4.00002 9.55229 4.44774 10 5.00002 10C5.55231 10 6.00002 9.55228 6.00002 9V5.99999H9C9.55228 5.99999 10 5.55227 10 4.99999C10 4.4477 9.55228 3.99999 9 3.99999L6.00002 3.99999V1C6.00002 0.447715 5.55231 0 5.00002 0Z" fill="white"/>
</svg>
