<svg width="53" height="53" viewBox="0 0 53 53" fill="none" xmlns="http://www.w3.org/2000/svg">
<path d="M37.1697 16.5237C37.18 16.5237 37.1938 16.5237 37.2076 16.5237C37.5685 16.5237 37.9034 16.6359 38.1779 16.8293L38.1727 16.8258C38.373 17.0002 38.5076 17.2454 38.5404 17.5216V17.5268C38.575 17.7374 38.594 17.9791 38.594 18.226C38.594 18.3382 38.5905 18.4487 38.5819 18.5592V18.5436C38.1934 22.6335 36.5084 32.5519 35.6521 37.1303C35.2896 39.0691 34.5766 39.7183 33.886 39.7804C32.3857 39.9202 31.2463 38.7894 29.7926 37.8365C27.5172 36.3431 26.231 35.4143 24.0229 33.9589C21.4695 32.2791 23.1252 31.352 24.5788 29.8431C24.9604 29.446 31.5743 23.4294 31.7038 22.8839C31.7107 22.8511 31.7141 22.8148 31.7141 22.7768C31.7141 22.6422 31.6641 22.5196 31.5829 22.4264C31.4932 22.3677 31.3809 22.3349 31.2635 22.3349C31.1859 22.3349 31.1116 22.3504 31.0426 22.3763L31.046 22.3746C30.8181 22.4264 27.1834 24.8284 20.1419 29.5807C19.3736 30.1867 18.4034 30.5699 17.3468 30.6148H17.3365C15.8396 30.4335 14.4809 30.1003 13.1913 29.6256L13.3191 29.667C11.6997 29.1387 10.4135 28.8608 10.524 27.9665C10.5827 27.5015 11.2237 27.0256 12.4472 26.5387C19.9836 23.255 25.0093 21.0907 27.5241 20.0456C30.2985 18.573 33.5148 17.361 36.8969 16.5755L37.1679 16.522L37.1697 16.5237ZM26.4796 0.959961C12.1468 0.994489 0.540039 12.622 0.540039 26.96C0.540039 41.3187 12.1796 52.96 26.54 52.96C40.9005 52.96 52.54 41.3204 52.54 26.96C52.54 12.622 40.9333 0.994489 26.6039 0.959961H26.6005C26.5602 0.959961 26.5199 0.959961 26.4796 0.959961Z" fill="#3183FF"/>
</svg>
