<svg width="57" height="56" viewBox="0 0 57 56" fill="none" xmlns="http://www.w3.org/2000/svg">
<path fill-rule="evenodd" clip-rule="evenodd" d="M1.53022 27.2598C1.53022 12.2287 13.8515 0 28.9964 0C44.14 0 56.46 12.2287 56.46 27.2598C56.46 42.2892 44.14 54.5166 28.9966 54.5164C24.4547 54.5164 19.9669 53.3966 15.9963 51.275L1.4861 55.8859C1.41384 55.909 1.33976 55.92 1.26623 55.92C1.07432 55.92 0.886411 55.8438 0.747881 55.7024C0.555974 55.507 0.490613 55.2201 0.578487 54.9607L5.29592 41.0451C2.83127 36.8802 1.53022 32.1213 1.53022 27.2598ZM41.7811 32.0647C41.8596 32.1031 41.9074 32.1265 41.918 32.1316C42.4518 32.3879 42.8737 32.5905 43.1184 32.9927C43.4757 33.5844 43.3341 35.2148 42.7971 36.7071C42.1153 38.6016 39.1182 40.1547 37.7543 40.2756L37.5542 40.2947C37.2388 40.3257 36.8814 40.3607 36.4347 40.3607C35.3719 40.3607 33.5022 40.1785 29.5542 38.6014C25.4533 36.9632 21.408 33.4512 18.163 28.7121C18.1536 28.6984 18.1447 28.6853 18.1363 28.673C18.0945 28.6117 18.0647 28.5682 18.0472 28.5447C17.1999 27.428 15.2263 24.4916 15.2263 21.3817C15.2263 17.9263 16.8803 15.9615 17.858 15.3451C18.78 14.7639 20.8652 14.4894 21.2481 14.4732C21.4752 14.4636 21.4992 14.461 21.5232 14.4602C21.5324 14.46 21.5417 14.46 21.5625 14.46C22.3706 14.46 22.9522 14.9504 23.3923 16.0036C23.4362 16.1084 23.5688 16.4275 23.7464 16.8547C24.3082 18.2066 25.3198 20.6408 25.3931 20.7873C25.5105 21.0177 25.874 21.7312 25.4484 22.5767L25.3571 22.7603L25.3566 22.7613C25.1825 23.1142 25.0321 23.419 24.6948 23.8115C24.5864 23.9368 24.476 24.0697 24.3658 24.2024C24.1332 24.4823 23.8923 24.7723 23.6704 24.9918C23.5945 25.0679 23.4475 25.2153 23.4315 25.274C23.4315 25.274 23.4316 25.2744 23.4318 25.2754C23.4331 25.2842 23.441 25.3349 23.4998 25.435C23.9549 26.2053 27.2744 30.7735 31.6476 32.6732C31.8386 32.7562 32.4695 33.016 32.506 33.016C32.5466 33.016 32.6145 32.9481 32.6643 32.8912C33.0452 32.4608 34.278 31.0197 34.6852 30.4144C35.0454 29.8756 35.5079 29.6012 36.0584 29.6012C36.3953 29.6012 36.7121 29.7049 37.0079 29.8111C37.6621 30.0466 41.0503 31.7066 41.7811 32.0647Z" fill="#3183FF"/>
</svg>
